# xmcd CD database file
#
# Track frame offsets:
#	150
#	9144
#	21706
#	33711
#	37430
#	52720
#	66020
#	72897
#	85956
#	94528
#	104400
#	116265
#	125587
#	133034
#	154050
#
# Disc length: 2460 seconds
#
# Revision: 1
# Processed by: cddbd v1.4PL0 Copyright (c) Steve Scherf et al.
# Submitted via: CDex 1.40Release
#
DISCID=c8099a0f
DTITLE=Jon Wayne - Texas Funeral
DYEAR=1900
DGENRE=Country
TTITLE0=But I've got Texas
TTITLE1=Texas Funeral
TTITLE2=Mr. Egyptian
TTITLE3=Texas Cyclone
TTITLE4=Texas Jailcell
TTITLE5=Workin' Man Blues
TTITLE6=Shades
TTITLE7=Texas Wine
TTITLE8=Is That Justice?
TTITLE9=Texas Polka
TTITLE10=You and the Kitten
TTITLE11=Apple Schnapps
TTITLE12=Truckin'
TTITLE13=One Hundred and Fifty-One Owl Caricatures
TTITLE14=Texas Studio
EXTD=ID3G: 2
EXTT0=
EXTT1=
EXTT2=
EXTT3=
EXTT4=
EXTT5=
EXTT6=
EXTT7=
EXTT8=
EXTT9=
EXTT10=
EXTT11=
EXTT12=
EXTT13=
EXTT14=
PLAYORDER=
